<?xml version="1.0" standalone="no"?>
<!DOCTYPE svg PUBLIC "-//W3C//DTD SVG 20010904//EN"
 "http://www.w3.org/TR/2001/REC-SVG-20010904/DTD/svg10.dtd">
<svg version="1.0" xmlns="http://www.w3.org/2000/svg"
 width="512.000000pt" height="512.000000pt" viewBox="0 0 512.000000 512.000000"
 preserveAspectRatio="xMidYMid meet">
<metadata>
Created by potrace 1.16, written by Peter Selinger 2001-2019
</metadata>
<g transform="translate(0.000000,512.000000) scale(0.100000,-0.100000)"
fill="#FF7643" stroke="none">
<path d="M2503 5098 c-32 -35 -140 -234 -173 -320 -56 -146 -57 -275 -2 -353
19 -27 48 -50 89 -70 l62 -30 0 -127 1 -128 -109 0 c-94 0 -112 -3 -135 -21
l-26 -20 0 -440 0 -439 -275 0 -275 0 0 714 c0 416 -4 725 -9 739 -11 28 -56
47 -95 40 -58 -11 -56 18 -56 -768 l0 -720 -62 -12 c-99 -19 -196 -73 -267
-148 -34 -36 -72 -88 -86 -115 -51 -101 -55 -139 -55 -622 l0 -448 -39 0 c-87
0 -221 -60 -300 -133 -51 -48 -109 -143 -131 -215 -19 -60 -20 -93 -20 -518
l0 -454 -253 0 c-306 0 -292 6 -285 -117 8 -141 99 -273 233 -339 l60 -29
2265 0 2265 0 60 29 c134 66 225 198 233 339 7 123 21 117 -285 117 l-253 0 0
454 c0 512 -1 523 -78 642 -83 128 -243 224 -374 224 l-38 0 0 448 c0 483 -4
521 -55 622 -14 27 -52 79 -86 115 -71 75 -168 129 -267 148 l-62 12 0 458 0
458 -25 24 c-29 30 -74 32 -106 6 l-24 -19 -3 -466 -3 -466 -274 0 -275 0 0
439 0 440 -26 20 c-23 18 -41 21 -135 21 l-109 0 1 128 0 127 62 30 c43 21 70
43 92 73 26 39 30 53 33 125 6 129 -32 245 -145 441 -62 109 -78 126 -123 126
-25 0 -43 -7 -57 -22z m157 -406 c25 -66 25 -108 0 -149 -43 -72 -140 -83
-194 -22 -25 29 -28 37 -24 88 4 58 40 147 92 230 l28 44 39 -69 c21 -38 48
-93 59 -122z m90 -857 l0 -75 -190 0 -190 0 0 75 0 75 190 0 190 0 0 -75z m0
-305 l0 -70 -190 0 -190 0 0 70 0 70 190 0 190 0 0 -70z m0 -305 l0 -75 -190
0 -190 0 0 75 0 75 190 0 190 0 0 -75z m955 -256 c98 -36 192 -141 211 -235 5
-26 2 -31 -29 -46 -59 -28 -105 -76 -173 -182 -76 -115 -115 -160 -155 -176
-61 -26 -119 16 -200 143 -117 185 -187 237 -313 237 -131 0 -194 -47 -319
-235 -82 -124 -111 -150 -167 -150 -56 0 -85 26 -167 150 -88 132 -133 180
-198 211 -134 64 -330 -1 -327 -108 2 -68 66 -94 135 -54 58 34 106 34 148 -1
17 -15 65 -77 105 -139 114 -173 177 -218 304 -218 127 0 190 45 304 218 87
132 122 166 174 166 60 0 94 -30 175 -153 113 -172 172 -220 285 -234 124 -14
218 51 338 233 41 62 79 116 84 119 7 4 10 -116 10 -349 l0 -356 -1370 0
-1370 0 0 356 c0 224 4 353 10 349 5 -3 42 -56 83 -118 112 -170 200 -237 312
-237 114 0 248 96 231 166 -17 68 -87 84 -148 34 -46 -38 -86 -47 -124 -27
-42 22 -73 58 -149 175 -65 100 -136 172 -186 187 -18 6 -20 12 -15 38 19 93
113 199 209 236 51 20 74 20 1144 20 1081 1 1093 1 1148 -20z m500 -1338 c79
-32 165 -118 193 -193 l20 -53 -59 -28 c-81 -39 -138 -100 -244 -262 -99 -152
-152 -208 -212 -224 -52 -15 -72 -14 -118 8 -52 23 -89 66 -193 225 -48 72
-108 153 -134 179 -91 91 -224 127 -343 92 -111 -32 -173 -90 -293 -274 -102
-158 -127 -187 -186 -216 -55 -28 -74 -30 -128 -15 -53 15 -109 77 -214 235
-102 156 -158 214 -242 253 -48 23 -70 27 -142 27 -161 -1 -236 -58 -392 -296
-103 -157 -146 -202 -209 -219 -105 -28 -167 18 -303 224 -106 161 -166 225
-247 264 l-57 27 20 52 c38 104 149 193 265 213 26 4 748 7 1603 6 l1555 -1
60 -24z m-2220 -420 c53 -24 87 -64 200 -236 101 -153 149 -203 235 -244 46
-21 69 -26 140 -26 71 0 94 5 140 26 86 41 134 91 235 244 113 172 147 212
200 236 76 35 145 19 209 -47 20 -20 79 -101 130 -179 145 -217 228 -279 376
-279 159 -1 245 61 387 278 79 121 156 216 175 216 4 0 8 -160 8 -355 l0 -355
-209 0 c-206 0 -210 0 -225 -22 -22 -31 -20 -81 3 -109 l19 -24 471 -3 471 -3
-19 -37 c-26 -50 -66 -86 -126 -114 l-50 -23 -2195 0 -2195 0 -50 23 c-60 28
-100 64 -126 114 l-19 38 1766 2 1766 3 19 24 c23 28 25 78 3 109 l-15 22
-1505 0 -1504 0 0 362 0 362 41 -39 c23 -22 83 -103 135 -181 151 -229 233
-289 394 -288 149 0 233 63 376 281 51 78 110 158 130 178 65 66 134 81 209
46z"/>
<path d="M1546 2609 c-20 -16 -26 -29 -26 -60 0 -50 27 -79 75 -79 48 0 75 29
75 79 0 31 -6 44 -26 60 -15 12 -37 21 -49 21 -12 0 -34 -9 -49 -21z"/>
<path d="M2509 2611 c-18 -14 -24 -29 -24 -59 0 -54 26 -82 75 -82 49 0 75 28
75 82 0 47 -30 78 -75 78 -15 0 -38 -9 -51 -19z"/>
<path d="M3476 2609 c-20 -16 -26 -29 -26 -60 0 -50 27 -79 75 -79 48 0 75 29
75 79 0 31 -6 44 -26 60 -15 12 -37 21 -49 21 -12 0 -34 -9 -49 -21z"/>
<path d="M1207 1192 c-24 -27 -22 -94 3 -117 29 -26 89 -23 112 5 24 30 23 85
-2 110 -26 26 -90 27 -113 2z"/>
<path d="M2501 1184 c-52 -66 9 -150 88 -123 50 18 65 78 30 123 -29 37 -89
37 -118 0z"/>
<path d="M3800 1190 c-25 -25 -26 -80 -2 -110 23 -28 83 -31 112 -5 27 24 28
95 2 118 -26 24 -87 22 -112 -3z"/>
<path d="M1515 5065 c-23 -22 -25 -32 -25 -107 0 -91 13 -122 56 -138 29 -11
81 5 94 30 6 10 10 59 10 109 0 85 -1 91 -26 110 -36 28 -79 27 -109 -4z"/>
<path d="M1822 4886 c-49 -51 -62 -71 -62 -96 0 -42 39 -80 81 -80 46 0 159
112 159 157 0 47 -34 83 -79 83 -33 0 -45 -8 -99 -64z"/>
<path d="M1172 4917 c-37 -39 -29 -80 25 -138 26 -28 60 -57 76 -66 54 -28
117 10 117 70 0 27 -11 44 -63 95 -53 53 -68 62 -98 62 -24 0 -42 -7 -57 -23z"/>
<path d="M1913 4600 c-45 -18 -56 -80 -22 -124 19 -25 25 -26 115 -26 111 0
134 14 134 78 0 43 -6 55 -37 71 -25 13 -158 14 -190 1z"/>
<path d="M1053 4590 c-45 -18 -58 -90 -23 -128 19 -20 31 -22 115 -22 82 0 98
3 115 20 29 29 27 84 -5 115 -22 22 -32 25 -102 24 -43 0 -88 -4 -100 -9z"/>
<path d="M3480 4540 c-17 -17 -20 -33 -20 -115 0 -82 3 -98 20 -115 26 -26 83
-27 110 0 27 27 33 58 28 141 -3 60 -8 74 -27 90 -31 25 -85 25 -111 -1z"/>
<path d="M3164 4410 c-12 -5 -29 -19 -38 -32 -30 -42 -20 -67 54 -141 64 -65
72 -69 102 -63 43 8 68 39 68 83 0 29 -10 45 -57 94 -60 60 -92 75 -129 59z"/>
<path d="M3788 4363 c-65 -66 -77 -97 -54 -141 33 -64 81 -58 162 20 57 54 64
65 64 100 0 50 -27 78 -78 78 -33 0 -45 -8 -94 -57z"/>
<path d="M1285 4331 c-11 -5 -44 -34 -72 -64 -43 -45 -53 -62 -53 -90 0 -44
26 -75 68 -83 30 -6 38 -2 102 63 78 77 86 104 48 147 -26 28 -63 39 -93 27z"/>
<path d="M1790 4320 c-13 -13 -20 -33 -20 -58 0 -35 7 -46 64 -100 36 -35 73
-62 85 -62 55 0 100 53 87 103 -3 13 -32 49 -65 80 -50 48 -65 57 -95 57 -23
0 -43 -7 -56 -20z"/>
<path d="M3874 4068 c-22 -10 -44 -47 -44 -73 0 -7 12 -27 26 -44 25 -30 28
-31 114 -31 109 0 135 15 135 80 0 64 -26 80 -129 79 -44 0 -91 -5 -102 -11z"/>
<path d="M2999 4051 c-18 -14 -24 -29 -24 -61 0 -65 26 -80 134 -80 110 0 131
12 131 76 0 70 -21 84 -129 84 -72 0 -93 -4 -112 -19z"/>
<path d="M3235 3791 c-17 -10 -50 -40 -73 -66 -49 -56 -56 -99 -19 -133 52
-48 89 -36 171 54 61 68 63 120 5 149 -36 19 -48 19 -84 -4z"/>
<path d="M3750 3790 c-36 -36 -27 -84 27 -141 26 -28 60 -57 76 -66 57 -29
117 8 117 73 0 36 -63 115 -111 139 -39 21 -85 19 -109 -5z"/>
</g>
</svg>
