<?xml version="1.0" standalone="no"?>
<!DOCTYPE svg PUBLIC "-//W3C//DTD SVG 20010904//EN"
 "http://www.w3.org/TR/2001/REC-SVG-20010904/DTD/svg10.dtd">
<svg version="1.0" xmlns="http://www.w3.org/2000/svg"
 width="512.000000pt" height="512.000000pt" viewBox="0 0 512.000000 512.000000"
 preserveAspectRatio="xMidYMid meet">

<g transform="translate(0.000000,512.000000) scale(0.100000,-0.100000)"
fill="#000000" stroke="none">
<path d="M2021 4944 c-194 -41 -340 -195 -372 -390 -9 -55 -8 -97 4 -206 16
-145 35 -202 81 -250 l26 -27 0 -778 c1 -737 2 -781 20 -833 10 -30 18 -55 17
-56 -1 -1 -46 -4 -99 -6 l-98 -4 0 539 c0 388 -3 551 -12 579 -6 22 -31 62
-55 88 -73 82 -61 80 -651 80 -375 0 -526 -3 -556 -12 -55 -16 -138 -99 -154
-154 -8 -27 -12 -117 -12 -258 l0 -216 80 0 80 0 0 80 0 80 560 0 560 0 0
-400 0 -400 -560 0 -560 0 0 240 0 240 -80 0 -81 0 3 -354 c3 -340 4 -356 24
-382 46 -62 55 -65 462 -139 l387 -71 3 -97 c2 -87 1 -97 -15 -97 -10 0 -56
-14 -103 -30 -85 -30 -85 -30 -318 -30 l-233 0 -24 -25 c-25 -24 -25 -25 -25
-228 l0 -205 -39 -78 c-53 -106 -89 -219 -106 -334 -22 -144 -20 -196 10 -225
24 -25 25 -25 222 -25 l198 0 35 -68 c22 -43 61 -93 110 -142 252 -253 648
-253 900 0 48 48 88 100 110 142 l35 68 695 0 c740 0 743 0 840 50 25 12 78
56 118 98 l72 75 0 -127 c0 -121 1 -128 25 -151 22 -23 31 -25 124 -25 l99 0
19 -33 c74 -124 242 -239 402 -273 206 -43 429 23 576 171 80 81 125 152 163
257 24 66 26 85 24 201 -1 70 -2 144 -1 165 3 156 1 182 -16 232 -23 71 -71
163 -99 189 l-22 21 -57 -51 -57 -51 20 -28 c24 -34 70 -130 70 -147 0 -10
-64 -13 -286 -13 -157 0 -293 -4 -303 -9 -9 -5 -86 -113 -171 -240 l-153 -231
-99 0 -98 0 0 143 c0 178 11 240 60 343 75 155 234 276 403 305 39 6 128 10
210 7 129 -3 147 -6 201 -31 32 -15 62 -27 66 -27 7 0 19 17 75 103 l17 27
-74 35 c-42 19 -94 37 -117 41 l-41 7 0 139 c0 131 -1 140 -23 162 -17 17 -39
24 -85 29 -113 12 -199 70 -253 169 l-34 63 -3 203 -4 202 137 0 c131 0 137 1
160 25 l25 24 0 311 0 311 -26 26 c-25 25 -26 25 -160 21 l-134 -4 0 57 0 56
-141 176 -140 176 18 33 c12 23 18 55 18 108 0 62 -5 84 -27 126 -49 93 -147
154 -248 154 -150 0 -280 -130 -280 -280 0 -152 131 -281 284 -280 23 1 59 7
81 15 21 8 40 13 41 12 0 -1 53 -68 117 -148 114 -143 117 -147 117 -197 l0
-50 -192 64 -193 64 -350 0 -350 1 -188 220 -188 220 39 44 c40 46 62 100 62
154 0 28 6 34 70 66 113 57 116 81 21 224 l-70 104 30 28 c32 30 36 59 19 150
-16 83 -63 174 -125 238 -123 129 -295 177 -484 135z m287 -184 c35 -18 74
-47 88 -63 23 -27 74 -118 74 -132 0 -3 -76 -5 -169 -5 -225 0 -214 9 -221
-178 -6 -162 -16 -186 -88 -212 -37 -13 -47 -13 -84 0 -22 8 -50 26 -60 40
-24 32 -40 129 -41 250 -2 113 18 169 86 238 73 75 149 103 272 99 69 -3 89
-8 143 -37z m92 -373 c0 -7 19 -41 43 -77 24 -36 52 -77 61 -92 l18 -27 -51
-25 c-28 -14 -55 -35 -61 -45 -5 -11 -10 -49 -10 -86 0 -57 -3 -69 -25 -90
-24 -25 -24 -25 -240 -25 l-215 0 0 40 c0 39 1 40 33 40 73 0 138 29 198 89
68 68 89 125 89 238 l0 73 80 0 c58 0 80 -4 80 -13z m1244 -426 c26 -27 31
-39 31 -81 0 -43 -5 -54 -33 -82 -28 -28 -39 -33 -82 -33 -43 0 -54 5 -82 33
-28 28 -33 39 -33 81 0 52 25 92 70 112 37 16 96 3 129 -30z m-1154 -442 c113
-132 221 -258 241 -280 l36 -39 336 0 337 0 0 -80 0 -80 -383 0 -382 0 -225
225 c-124 124 -229 225 -235 225 -13 0 -105 -92 -105 -105 0 -6 65 -75 145
-155 l145 -145 0 -142 0 -143 -240 0 -240 0 0 480 0 480 183 0 182 -1 205
-240z m-1075 -24 c21 -20 25 -34 25 -80 l0 -55 -560 0 -560 0 0 55 c0 46 4 60
25 80 l24 25 511 0 511 0 24 -25z m2502 -541 c1 -93 0 -104 -10 -74 -6 19 -34
58 -62 86 -59 59 -117 80 -195 71 l-50 -6 0 69 0 68 158 -52 157 -53 2 -109z
m323 -34 l0 -200 -80 0 -80 0 0 190 0 189 33 10 c17 5 53 10 80 10 l47 1 0
-200z m-1209 -40 l418 0 -6 -50 c-3 -29 0 -69 8 -97 23 -83 132 -173 211 -173
11 0 5 -19 -21 -72 l-36 -72 -6 -390 c-3 -215 -6 -393 -7 -395 -1 -3 -93 -96
-203 -207 l-201 -202 -57 57 c-33 34 -70 61 -91 67 -22 7 -34 16 -32 25 2 8
76 192 166 409 182 439 175 420 186 499 24 177 -78 378 -236 463 -90 49 -149
58 -366 58 l-198 0 0 61 0 60 26 -20 c26 -20 37 -21 445 -21z m704 -25 c16
-15 25 -36 25 -55 0 -19 -9 -40 -25 -55 -15 -16 -36 -25 -55 -25 -19 0 -40 9
-55 25 -16 15 -25 36 -25 55 0 19 9 40 25 55 15 16 36 25 55 25 19 0 40 -9 55
-25z m-747 -230 c92 -28 175 -109 202 -200 7 -22 12 -67 12 -101 0 -57 -15
-97 -188 -513 l-187 -451 -114 0 c-62 0 -113 2 -113 4 0 3 81 216 180 473 99
257 180 478 180 489 0 12 -9 32 -19 45 l-19 24 -449 5 -450 5 -37 29 c-47 35
-66 79 -66 151 l0 55 508 0 c427 0 517 -2 560 -15z m932 -263 c0 -193 10 -253
56 -344 55 -109 200 -223 310 -244 l34 -6 0 -84 0 -84 -69 0 c-205 0 -399 -84
-534 -230 -76 -83 -122 -158 -157 -257 -24 -68 -38 -87 -150 -210 -95 -105
-134 -141 -174 -159 l-51 -24 -1432 0 -1432 0 5 37 c55 393 326 710 700 818
83 24 97 25 370 25 l284 0 0 80 0 80 -240 0 -240 0 0 80 0 80 590 0 c325 0
590 -3 590 -8 0 -14 -56 -70 -86 -85 -16 -8 -55 -20 -86 -27 -125 -25 -244
-111 -307 -221 -85 -149 -77 -365 19 -498 l30 -41 -335 0 -335 0 0 -80 0 -81
872 3 873 3 61 33 c84 46 598 561 640 642 l29 55 5 385 c6 436 4 427 88 500
72 64 72 65 72 -138z m-2480 -202 l0 -80 -157 0 c-150 0 -172 3 -552 71 -218
40 -400 76 -405 80 -6 5 235 9 552 9 l562 0 0 -80z m935 55 c16 -15 25 -36 25
-55 0 -19 -9 -40 -25 -55 l-24 -25 -351 0 -351 0 -24 25 c-16 15 -25 36 -25
55 0 19 9 40 25 55 l24 25 351 0 351 0 24 -25z m385 21 c0 -3 -80 -211 -177
-463 l-178 -458 -3 -139 -4 -138 -91 4 c-104 5 -168 30 -223 90 -60 63 -79
113 -79 208 0 173 79 265 264 312 90 22 145 53 195 109 58 63 90 142 89 214
-2 96 -2 116 0 193 l2 72 103 0 c56 0 102 -2 102 -4z m-2190 -719 c0 -2 -20
-23 -45 -47 l-45 -44 0 47 0 47 45 0 c25 0 45 -1 45 -3z m2445 -342 c30 -29
32 -74 6 -106 -19 -24 -22 -24 -240 -27 l-221 -3 0 80 0 81 215 0 c216 0 216
0 240 -25z m1395 -375 c0 -43 -47 -90 -90 -90 -23 0 -43 12 -80 46 -28 26 -50
51 -50 55 0 5 21 41 47 80 l47 71 63 -65 c51 -52 63 -71 63 -97z m371 133 c17
-46 22 -164 10 -226 -40 -192 -201 -347 -396 -380 -131 -22 -293 25 -388 113
l-45 41 46 68 47 69 27 -32 c14 -18 55 -48 90 -67 58 -31 70 -34 148 -33 100
0 161 24 225 89 66 66 90 125 89 225 0 61 -5 94 -17 117 -9 18 -17 34 -17 38
0 3 38 5 85 5 84 0 86 0 96 -27z m-3734 -410 c64 -36 74 -38 153 -38 79 0 89
2 153 38 65 35 72 37 162 37 54 0 95 -4 95 -10 0 -5 -27 -38 -60 -73 -194
-208 -506 -208 -700 0 -33 35 -60 68 -60 73 0 6 41 10 95 10 90 0 97 -2 162
-37z"/>
<path d="M1080 1425 c-25 -7 -57 -17 -72 -23 l-27 -11 28 -66 c15 -36 30 -68
33 -71 5 -4 111 22 129 32 4 2 3 21 -1 41 -4 21 -11 55 -14 76 -8 40 -10 41
-76 22z"/>
<path d="M727 1218 c-52 -52 -109 -122 -130 -158 l-37 -65 52 -26 c88 -44 95
-45 114 -7 27 53 100 140 148 178 25 19 45 38 46 42 0 12 -83 128 -93 128 -5
0 -50 -42 -100 -92z"/>
<path d="M480 2800 l0 -240 80 0 80 0 0 240 0 240 -80 0 -80 0 0 -240z"/>
</g>
</svg>
