<?xml version="1.0" standalone="no"?>
<!DOCTYPE svg PUBLIC "-//W3C//DTD SVG 20010904//EN"
 "http://www.w3.org/TR/2001/REC-SVG-20010904/DTD/svg10.dtd">
<svg version="1.0" xmlns="http://www.w3.org/2000/svg"
 width="512.000000pt" height="512.000000pt" viewBox="0 0 512.000000 512.000000"
 preserveAspectRatio="xMidYMid meet">
<metadata>
Created by potrace 1.16, written by Peter Selinger 2001-2019
</metadata>
<g transform="translate(0.000000,512.000000) scale(0.100000,-0.100000)"
fill="#FF7643" stroke="none">
<path d="M215 5021 c-51 -23 -111 -89 -125 -138 -8 -27 -10 -667 -8 -2278 l3
-2240 29 -60 c38 -77 114 -153 191 -191 l60 -29 2140 -3 c1929 -2 2145 -1
2195 14 148 42 275 167 321 315 18 58 19 106 19 961 0 991 2 954 -62 1086
l-31 63 31 32 c58 59 62 83 62 329 0 249 -5 273 -71 335 -70 66 -19 63 -979
63 l-870 0 0 793 c0 750 -1 794 -19 832 -10 22 -34 54 -52 72 -71 67 31 63
-1451 63 -1278 0 -1345 -1 -1383 -19z m2689 -155 c23 -9 37 -24 45 -46 7 -22
11 -149 11 -386 l0 -354 -1360 0 -1360 0 0 354 c0 388 3 409 54 432 47 20
2561 21 2610 0z m56 -1266 l0 -320 -123 0 -124 0 -49 77 c-114 180 -298 316
-514 379 -53 15 -97 19 -235 19 -159 -1 -175 -3 -255 -29 -100 -33 -163 -64
-245 -119 -123 -84 -249 -238 -305 -373 -20 -48 -24 -51 -73 -63 -84 -20 -246
-105 -319 -165 -147 -122 -256 -298 -298 -480 -19 -83 -22 -116 -18 -239 5
-119 10 -156 33 -227 29 -89 61 -159 102 -221 l25 -37 -46 -79 c-26 -43 -61
-121 -78 -173 -27 -84 -31 -112 -36 -240 -5 -181 14 -276 88 -425 89 -178 223
-312 405 -400 143 -70 193 -80 390 -79 159 0 175 2 255 28 174 58 313 149 415
274 l45 54 0 -146 c0 -166 14 -227 76 -323 l34 -54 -837 3 c-782 3 -841 4
-878 21 -54 24 -103 73 -129 127 l-21 45 -3 1743 -2 1742 1360 0 1360 0 0
-320z m-937 -15 c52 -7 56 -15 27 -63 -44 -71 -143 -95 -211 -49 -34 23 -79
91 -67 102 8 9 135 22 173 18 17 -1 51 -5 78 -8z m-364 -177 c62 -85 151 -128
261 -128 78 0 136 18 193 60 47 35 103 110 112 151 l7 29 51 -27 c29 -15 93
-68 142 -118 l90 -90 -180 -5 c-143 -4 -186 -8 -211 -22 -39 -21 -102 -91
-109 -121 -6 -21 -10 -22 -75 -19 -84 5 -130 -9 -183 -57 -55 -49 -77 -101
-77 -181 0 -80 22 -132 77 -181 53 -48 99 -62 183 -57 65 3 69 2 75 -19 3 -13
22 -41 41 -63 34 -38 36 -42 24 -71 -11 -26 -17 -30 -39 -24 -64 17 -180 17
-229 1 -91 -30 -177 -117 -197 -199 l-7 -27 -52 27 c-66 36 -213 183 -249 250
l-27 51 29 7 c71 15 166 110 196 195 19 54 19 165 0 219 -31 89 -120 177 -198
196 l-27 7 27 52 c36 67 173 205 243 244 l55 32 12 -36 c7 -20 26 -54 42 -76z
m3165 -302 c47 -20 56 -54 56 -226 0 -172 -9 -206 -56 -226 -50 -21 -2558 -21
-2608 0 -47 20 -56 54 -56 226 0 169 9 206 54 226 47 20 2561 21 2610 0z
m-3546 -96 c71 -44 95 -143 49 -211 -24 -36 -91 -79 -104 -66 -10 11 -17 196
-9 252 8 50 17 54 64 25z m-238 -130 c0 -62 7 -145 16 -188 37 -182 150 -370
290 -486 l53 -44 -147 -5 c-159 -5 -230 -21 -348 -76 -67 -32 -171 -99 -193
-125 -21 -25 -36 -19 -54 18 l-16 35 29 6 c40 9 116 65 150 112 84 113 81 287
-6 397 -32 41 -105 91 -146 101 -16 4 -28 10 -28 14 0 11 67 110 103 151 51
59 139 128 214 166 37 18 71 34 76 34 4 0 7 -50 7 -110z m930 50 c11 -11 20
-33 20 -50 0 -17 -9 -39 -20 -50 -11 -11 -33 -20 -50 -20 -17 0 -39 9 -50 20
-11 11 -20 33 -20 50 0 17 9 39 20 50 11 11 33 20 50 20 17 0 39 -9 50 -20z
m2829 -510 c78 -121 76 -87 76 -1050 0 -661 -3 -864 -13 -897 -28 -94 -121
-187 -215 -215 -61 -19 -2193 -19 -2254 0 -94 28 -187 121 -215 215 -10 33
-13 236 -13 897 0 963 -2 929 76 1050 l39 60 1240 0 1240 0 39 -60z m-4161 30
c71 -44 95 -143 49 -211 -24 -36 -91 -79 -104 -66 -10 11 -17 196 -9 252 8 50
17 54 64 25z m1343 -150 c15 -9 19 -22 19 -69 l0 -59 -42 -4 c-46 -4 -177 8
-186 17 -12 12 33 79 67 102 37 25 107 31 142 13z m-598 -315 c52 -7 56 -15
27 -63 -44 -71 -143 -95 -211 -49 -34 23 -79 91 -67 102 8 9 135 22 173 18 17
-1 51 -5 78 -8z m617 -86 l0 -101 -50 61 c-28 33 -74 78 -102 101 l-51 40 102
0 101 0 0 -101z m-981 -91 c62 -85 151 -128 261 -128 78 0 136 18 193 60 47
35 103 110 112 151 l7 29 51 -27 c67 -36 214 -183 250 -249 l27 -52 -27 -7
c-43 -10 -118 -62 -149 -102 -86 -113 -86 -301 1 -405 36 -44 110 -95 146
-103 l29 -7 -27 -51 c-36 -67 -183 -214 -250 -250 l-51 -27 -7 29 c-9 41 -65
116 -112 151 -113 83 -285 81 -396 -4 -40 -31 -92 -106 -102 -149 l-7 -27 -52
27 c-66 36 -213 183 -249 250 l-27 51 29 7 c71 15 166 110 196 195 19 54 19
165 0 219 -31 89 -120 177 -198 196 l-27 7 27 52 c36 67 173 205 243 244 l55
32 12 -36 c7 -20 26 -54 42 -76z m-381 -398 c71 -44 95 -143 49 -211 -24 -36
-91 -79 -104 -66 -10 11 -17 196 -9 252 8 50 17 54 64 25z m1348 -25 c8 -56 1
-241 -9 -252 -13 -13 -80 30 -104 66 -46 68 -22 167 49 211 47 29 56 25 64
-25z m-625 -698 c34 -23 79 -90 67 -102 -20 -20 -276 -20 -296 0 -12 12 33 79
67 102 23 16 49 23 81 23 32 0 58 -7 81 -23z"/>
<path d="M1495 4701 c-87 -40 -135 -120 -135 -223 1 -142 97 -238 240 -238
144 0 240 96 240 240 0 104 -53 187 -142 224 -52 22 -153 20 -203 -3z m155
-171 c11 -11 20 -33 20 -50 0 -17 -9 -39 -20 -50 -11 -11 -33 -20 -50 -20 -17
0 -39 9 -50 20 -11 11 -20 33 -20 50 0 17 9 39 20 50 11 11 33 20 50 20 17 0
39 -9 50 -20z"/>
<path d="M3120 2880 l0 -80 400 0 400 0 0 80 0 80 -400 0 -400 0 0 -80z"/>
<path d="M2392 2140 c-18 -11 -41 -34 -52 -52 -19 -32 -20 -52 -20 -728 0
-676 1 -696 20 -728 11 -18 34 -41 52 -52 32 -20 53 -20 1128 -20 1075 0 1096
0 1128 20 18 11 41 34 52 52 19 32 20 52 20 728 0 676 -1 696 -20 728 -11 18
-34 41 -52 52 -32 20 -53 20 -1128 20 -1075 0 -1096 0 -1128 -20z m2168 -780
l0 -640 -1040 0 -1040 0 0 640 0 640 1040 0 1040 0 0 -640z"/>
<path d="M2800 1755 c0 -81 1 -85 23 -85 24 0 44 -12 136 -82 72 -55 111 -68
201 -68 90 0 129 13 201 68 100 76 111 82 159 82 48 0 59 -6 159 -82 74 -56
111 -68 211 -68 90 0 129 16 220 89 35 28 76 54 90 57 14 3 31 7 38 10 8 2 12
28 12 84 l0 80 -37 0 c-62 0 -108 -18 -174 -68 -100 -76 -111 -82 -157 -82
-51 0 -67 8 -141 68 -83 67 -121 82 -221 82 -100 0 -138 -15 -221 -82 -73 -60
-90 -68 -139 -68 -49 0 -69 10 -136 66 -63 54 -127 83 -181 84 l-43 0 0 -85z"/>
<path d="M2800 1435 c0 -81 1 -85 23 -85 24 0 44 -12 136 -82 72 -55 111 -68
201 -68 90 0 129 13 201 68 100 76 111 82 159 82 48 0 59 -6 159 -82 74 -56
111 -68 211 -68 90 0 129 16 220 89 35 28 76 54 90 57 14 3 31 7 38 10 8 2 12
28 12 84 l0 80 -37 0 c-62 0 -108 -18 -174 -68 -100 -76 -111 -82 -157 -82
-51 0 -67 8 -141 68 -83 67 -121 82 -221 82 -100 0 -138 -15 -221 -82 -73 -60
-90 -68 -139 -68 -49 0 -69 10 -136 66 -63 54 -127 83 -181 84 l-43 0 0 -85z"/>
<path d="M2800 1115 c0 -81 1 -85 23 -85 24 0 44 -12 136 -82 72 -55 111 -68
201 -68 90 0 129 13 201 68 100 76 111 82 159 82 48 0 59 -6 159 -82 74 -56
111 -68 211 -68 90 0 129 16 220 89 35 28 76 54 90 57 14 3 31 7 38 10 8 2 12
28 12 84 l0 80 -37 0 c-62 0 -108 -18 -174 -68 -100 -76 -111 -82 -157 -82
-51 0 -67 8 -141 68 -83 67 -121 82 -221 82 -100 0 -138 -15 -221 -82 -73 -60
-90 -68 -139 -68 -49 0 -69 10 -136 66 -63 54 -127 83 -181 84 l-43 0 0 -85z"/>
<path d="M1175 1501 c-87 -40 -135 -120 -135 -223 1 -142 97 -238 240 -238
144 0 240 96 240 240 0 104 -53 187 -142 224 -52 22 -153 20 -203 -3z m155
-171 c11 -11 20 -33 20 -50 0 -17 -9 -39 -20 -50 -11 -11 -33 -20 -50 -20 -17
0 -39 9 -50 20 -43 43 -11 120 50 120 17 0 39 -9 50 -20z"/>
</g>
</svg>
