<?xml version="1.0" standalone="no"?>
<!DOCTYPE svg PUBLIC "-//W3C//DTD SVG 20010904//EN"
 "http://www.w3.org/TR/2001/REC-SVG-20010904/DTD/svg10.dtd">
<svg version="1.0" xmlns="http://www.w3.org/2000/svg"
 width="100px" height="100px" viewBox="0 0 512.000000 512.000000"
 preserveAspectRatio="xMidYMid meet">
<metadata>
Created by potrace 1.16, written by Peter Selinger 2001-2019
</metadata>
<g transform="translate(0.000000,512.000000) scale(0.100000,-0.100000)"
fill="#FF7643" stroke="none">
<path d="M2811 5103 c-72 -36 -131 -127 -131 -203 0 -14 67 -355 149 -758 152
-746 158 -768 213 -819 58 -54 184 -71 256 -34 20 11 187 170 370 353 348 350
351 354 322 408 -16 29 -66 42 -103 26 -18 -8 -174 -156 -347 -330 -278 -279
-319 -316 -346 -316 -17 0 -38 8 -47 18 -10 11 -68 275 -162 736 l-146 720 19
25 c11 16 31 27 48 29 48 5 1415 -276 1444 -297 14 -10 26 -30 28 -46 3 -24
-15 -47 -137 -170 -119 -120 -141 -146 -141 -172 0 -47 34 -83 78 -83 35 0 48
11 184 148 90 89 153 162 163 184 19 48 19 128 -1 176 -17 42 -67 97 -104 117
-29 14 -26 14 -841 180 -638 130 -705 139 -768 108z"/>
<path d="M3103 4722 c-28 -4 -63 -47 -63 -77 0 -12 9 -34 21 -49 26 -33 88
-37 119 -6 21 21 26 69 10 100 -11 21 -55 37 -87 32z"/>
<path d="M3412 4604 c-32 -22 -43 -57 -31 -94 30 -84 149 -58 149 32 0 63 -67
98 -118 62z"/>
<path d="M3890 4578 c-47 -51 -11 -128 60 -128 30 0 43 6 59 26 12 15 21 37
21 49 0 12 -9 34 -21 49 -27 34 -88 37 -119 4z"/>
<path d="M3184 4279 c-23 -12 -44 -49 -44 -78 0 -10 9 -30 21 -45 44 -55 139
-21 139 51 0 59 -64 98 -116 72z"/>
<path d="M3674 4256 c-78 -34 -49 -146 38 -146 67 0 100 74 56 124 -30 32 -56
38 -94 22z"/>
<path d="M1621 4090 c-639 -132 -728 -152 -763 -176 -82 -57 -119 -176 -83
-271 15 -41 98 -129 599 -631 646 -648 636 -639 746 -629 73 6 136 41 172 94
33 48 27 24 102 397 67 332 68 352 28 382 -26 20 -68 16 -96 -8 -23 -21 -32
-53 -86 -323 -34 -165 -66 -315 -71 -333 -12 -37 -46 -58 -81 -49 -13 4 -281
264 -595 579 -424 425 -573 579 -573 596 0 36 17 60 52 71 18 6 345 74 727
152 561 114 699 139 718 130 49 -22 49 -42 -1 -280 -54 -263 -56 -282 -20
-310 46 -36 102 -24 122 26 16 39 102 467 102 505 0 59 -24 112 -70 158 -48
49 -101 71 -166 69 -22 0 -365 -68 -763 -149z"/>
<path d="M3233 3864 c-21 -21 -24 -32 -20 -62 8 -45 24 -61 69 -69 48 -7 88
29 88 80 0 71 -85 103 -137 51z"/>
<path d="M2085 3855 c-50 -49 -15 -135 55 -135 41 0 80 39 80 80 0 41 -39 80
-80 80 -19 0 -40 -9 -55 -25z"/>
<path d="M1649 3761 c-18 -14 -24 -29 -24 -61 0 -32 6 -47 24 -61 53 -43 131
-5 131 65 0 64 -80 99 -131 57z"/>
<path d="M1256 3689 c-20 -16 -26 -29 -26 -58 0 -89 119 -114 148 -31 28 80
-56 141 -122 89z"/>
<path d="M1985 3527 c-23 -19 -29 -32 -28 -63 1 -47 30 -74 79 -74 46 0 74 29
74 78 0 70 -73 104 -125 59z"/>
<path d="M1621 3264 c-26 -33 -27 -75 -2 -105 14 -18 29 -24 61 -24 50 0 80
30 80 79 0 71 -96 105 -139 50z"/>
<path d="M3466 3046 c-22 -8 -51 -23 -65 -34 -14 -10 -161 -212 -328 -449
l-303 -431 -47 15 c-28 8 -87 15 -138 15 -111 0 -198 -25 -277 -81 -45 -31
-68 -40 -119 -46 -96 -10 -158 -30 -225 -73 l-59 -39 -278 296 c-367 393 -376
401 -422 422 -83 38 -203 15 -264 -50 -17 -19 -132 -265 -306 -660 l-279 -631
-48 0 c-96 0 -158 -49 -158 -124 0 -26 63 -244 170 -582 152 -484 173 -542
200 -567 l30 -27 2010 0 2010 0 30 28 c27 24 48 82 200 566 107 338 170 556
170 582 0 85 -61 124 -195 124 -47 0 -85 2 -85 5 0 2 25 125 56 272 64 312 67
372 21 442 -67 100 -151 119 -352 77 -66 -13 -123 -22 -126 -20 -4 2 -130 202
-280 444 -151 243 -287 455 -303 471 -17 17 -43 37 -60 46 -42 22 -133 26
-180 9z m118 -168 c24 -21 526 -820 526 -837 0 -4 -181 -44 -402 -89 l-401
-82 -49 46 c-67 63 -160 104 -264 118 l-85 11 291 415 c160 228 298 421 307
428 25 18 49 15 77 -10z m-2107 -737 l332 -353 -17 -34 -16 -34 -110 0 c-99 0
-112 -2 -133 -22 -44 -42 -22 -120 39 -136 30 -7 33 -13 64 -122 19 -63 34
-121 34 -127 0 -10 -87 -13 -400 -13 l-400 0 0 34 c0 57 -67 94 -119 66 -22
-11 -45 -64 -37 -85 4 -13 -8 -15 -85 -15 -82 0 -91 2 -86 18 16 56 512 1159
525 1170 9 7 30 12 47 10 25 -3 85 -62 362 -357z m1165 -142 c67 -14 101 -31
158 -79 42 -35 50 -37 131 -42 101 -7 166 -32 222 -86 82 -79 134 -72 -568
-72 -421 0 -625 3 -625 10 0 20 86 96 134 118 35 17 75 25 139 29 84 6 93 9
126 38 42 38 106 72 158 84 53 13 65 12 125 0z m1976 -55 c13 -9 22 -26 22
-42 0 -15 -25 -156 -57 -314 l-58 -288 -117 0 -116 0 5 39 c5 33 1 44 -20 65
-35 34 -79 34 -114 0 -21 -21 -25 -32 -20 -65 l5 -39 -329 0 c-257 0 -329 3
-329 13 0 6 15 63 33 126 33 112 34 113 71 126 42 15 39 13 55 42 16 31 14 57
-8 84 -18 22 -29 24 -131 29 l-112 5 569 117 c312 64 582 117 598 117 17 1 41
-6 53 -15z m-1231 -398 c-3 -7 -20 -66 -38 -130 l-32 -116 -737 0 -737 0 -32
116 c-18 64 -35 123 -38 130 -4 12 125 14 807 14 682 0 811 -2 807 -14z m1411
-418 c-2 -7 -42 -133 -88 -280 l-84 -267 -409 -3 -409 -3 -19 -24 c-25 -30
-24 -72 2 -105 l20 -26 381 0 380 0 -6 -28 c-4 -15 -22 -74 -41 -132 l-34
-105 -1931 0 -1931 0 -34 105 c-19 58 -37 117 -41 132 l-6 28 1490 0 1491 0
20 26 c26 33 27 75 2 105 l-19 24 -1519 3 -1519 2 -84 268 c-46 147 -85 273
-88 280 -3 9 449 12 2238 12 1789 0 2241 -3 2238 -12z"/>
<path d="M3450 2560 c-12 -12 -20 -33 -20 -55 0 -47 29 -75 78 -75 48 0 76 28
76 75 0 19 -8 43 -19 55 -25 27 -88 27 -115 0z"/>
<path d="M3606 2249 c-54 -42 -18 -139 52 -139 48 0 77 30 77 80 0 32 -6 47
-24 61 -30 25 -72 24 -105 -2z"/>
<path d="M3200 2190 c-31 -31 -27 -93 6 -119 35 -27 67 -26 100 3 37 31 39 90
5 117 -31 25 -86 24 -111 -1z"/>
<path d="M1086 2169 c-55 -43 -21 -139 50 -139 60 0 97 55 74 110 -21 50 -80
64 -124 29z"/>
<path d="M1296 1889 c-54 -42 -21 -139 48 -139 39 0 61 15 76 50 32 77 -57
141 -124 89z"/>
<path d="M909 1751 c-31 -25 -32 -83 -1 -113 27 -28 83 -29 112 -3 27 25 27
88 0 115 -25 25 -80 26 -111 1z"/>
<path d="M1222 1537 c-14 -15 -22 -36 -22 -59 0 -84 118 -106 150 -28 33 81
-69 150 -128 87z"/>
<path d="M4270 1740 c-33 -33 -30 -85 6 -117 31 -29 64 -29 98 -2 20 16 26 29
26 60 0 50 -27 79 -75 79 -22 0 -43 -8 -55 -20z"/>
<path d="M3830 1640 c-47 -47 -12 -134 54 -134 70 0 108 83 61 134 -25 27 -88
27 -115 0z"/>
<path d="M1965 3025 c-30 -29 -33 -74 -6 -106 14 -18 29 -24 61 -24 49 0 80
29 80 75 0 72 -84 107 -135 55z"/>
</g>
</svg>
