<?xml version="1.0" standalone="no"?>
<!DOCTYPE svg PUBLIC "-//W3C//DTD SVG 20010904//EN"
 "http://www.w3.org/TR/2001/REC-SVG-20010904/DTD/svg10.dtd">
<svg version="1.0" xmlns="http://www.w3.org/2000/svg"
 width="100px" height="100px" viewBox="0 0 512.000000 512.000000"
 preserveAspectRatio="xMidYMid meet">
<metadata>
Created by potrace 1.16, written by Peter Selinger 2001-2019
</metadata>
<g transform="translate(0.000000,512.000000) scale(0.100000,-0.100000)"
fill="#FF7643" stroke="none">
<path d="M4180 5020 c-16 -16 -20 -33 -20 -80 l0 -60 -873 0 c-757 0 -880 -2
-925 -15 -29 -9 -237 -117 -464 -240 l-411 -225 -489 0 c-389 0 -495 -3 -521
-14 -47 -19 -96 -73 -126 -136 -23 -49 -26 -67 -26 -170 0 -103 3 -121 26
-171 31 -66 87 -123 138 -141 l37 -13 -183 -615 -182 -615 0 -1202 c-1 -1190
-1 -1203 19 -1223 20 -20 33 -20 1860 -20 1827 0 1840 0 1860 20 20 20 20 33
20 1216 l0 1197 -170 578 c-93 318 -170 580 -170 582 0 2 25 7 56 10 74 8 172
55 234 113 59 55 116 163 126 235 l7 49 78 0 79 0 0 -100 c0 -152 -34 -140
400 -140 347 0 361 1 380 20 20 20 20 33 20 580 0 547 0 560 -20 580 -19 19
-33 20 -380 20 -347 0 -361 -1 -380 -20z m620 -580 l0 -440 -240 0 -240 0 0
440 0 440 240 0 240 0 0 -440z m-640 40 l0 -240 -125 0 -124 0 -34 -34 c-29
-29 -35 -43 -44 -111 -13 -92 -51 -155 -123 -204 -56 -38 -124 -51 -276 -51
l-112 0 -276 -215 c-251 -195 -313 -235 -361 -235 -60 0 -148 60 -171 117 -17
39 -18 101 -3 140 5 15 145 163 310 329 292 293 299 301 299 340 0 22 -6 49
-14 60 -14 18 -35 19 -633 24 l-618 5 273 148 c185 101 288 151 320 157 26 4
422 8 880 9 l832 1 0 -240z m-1485 -400 l-160 -160 -975 0 c-886 0 -978 2
-999 16 -33 24 -51 74 -51 144 0 70 18 120 51 144 21 15 125 16 1159 16 l1135
0 -160 -160z m-309 -332 c-81 -195 -17 -396 154 -483 103 -52 225 -54 324 -5
22 11 127 87 231 169 105 82 191 147 193 146 2 -2 -67 -240 -152 -530 l-156
-527 0 -1139 0 -1139 -1320 0 -1320 0 2 1118 3 1117 190 642 190 643 833 0
c663 0 833 -3 828 -12z m1234 -756 l155 -527 3 -1050 2 -1050 -120 120 -120
120 0 877 c0 865 0 878 -20 898 -13 13 -33 20 -60 20 -27 0 -47 -7 -60 -20
-20 -20 -20 -33 -20 -898 l0 -877 -120 -120 -120 -120 2 1055 3 1055 155 523
c85 287 157 522 160 522 3 0 75 -237 160 -528z m-60 -2657 l95 -95 -195 0
-195 0 95 95 c52 52 97 95 100 95 3 0 48 -43 100 -95z"/>
<path d="M820 2540 c-19 -19 -20 -33 -20 -215 l0 -195 76 -153 77 -152 -32
-450 c-17 -247 -31 -474 -31 -503 0 -65 30 -131 78 -173 58 -52 88 -59 234
-59 113 0 138 3 175 21 82 40 133 123 133 220 0 24 -14 247 -31 494 l-32 450
77 152 76 153 0 195 c0 182 -1 196 -20 215 -13 13 -33 20 -60 20 -27 0 -47 -7
-60 -20 -18 -18 -20 -33 -20 -160 l0 -140 -80 0 -80 0 0 140 c0 127 -2 142
-20 160 -13 13 -33 20 -60 20 -27 0 -47 -7 -60 -20 -18 -18 -20 -33 -20 -160
l0 -140 -80 0 -80 0 0 140 c0 127 -2 142 -20 160 -13 13 -33 20 -60 20 -27 0
-47 -7 -60 -20z m560 -465 c0 -2 -17 -38 -37 -80 l-37 -75 -106 0 -106 0 -37
75 c-20 42 -37 78 -37 80 0 3 81 5 180 5 99 0 180 -2 180 -5z m-96 -372 c18
-177 58 -825 52 -848 -9 -35 -58 -55 -136 -55 -78 0 -127 20 -136 55 -6 23 35
673 53 848 l6 57 77 0 78 0 6 -57z"/>
<path d="M2112 2544 c-153 -54 -272 -203 -352 -442 -59 -176 -96 -423 -71
-470 5 -10 41 -33 79 -51 64 -31 70 -37 66 -60 -2 -14 -18 -167 -35 -340 -34
-349 -33 -375 22 -449 17 -24 51 -51 81 -66 48 -24 63 -26 178 -26 115 0 130
2 178 26 30 15 64 42 81 66 56 75 57 103 17 494 -36 349 -36 354 -36 822 0
550 8 512 -102 512 -35 -1 -83 -8 -106 -16z m48 -554 l0 -390 -79 0 -78 0 -6
30 c-5 24 -18 35 -76 65 l-70 35 5 37 c11 78 65 284 93 350 30 74 70 143 105
182 19 22 94 81 103 81 1 0 3 -175 3 -390z m4 -582 c3 -18 17 -148 31 -288 24
-248 25 -256 7 -280 -23 -30 -49 -38 -122 -38 -73 0 -99 8 -122 38 -18 24 -17
32 7 280 14 140 28 270 31 288 l5 32 79 0 79 0 5 -32z"/>
</g>
</svg>
